<?xml version="1.0" standalone="no"?>
<!DOCTYPE svg PUBLIC "-//W3C//DTD SVG 20010904//EN"
 "http://www.w3.org/TR/2001/REC-SVG-20010904/DTD/svg10.dtd">
<svg version="1.0" xmlns="http://www.w3.org/2000/svg"
 width="512.000000pt" height="512.000000pt" viewBox="0 0 512.000000 512.000000"
 preserveAspectRatio="xMidYMid meet">
<metadata>
Created by potrace 1.14, written by Peter Selinger 2001-2017
</metadata>
<g transform="translate(0.000000,512.000000) scale(0.100000,-0.100000)"
fill="#000000" stroke="none">
<path d="M505 5096 c-64 -29 -129 -102 -144 -161 -8 -30 -11 -259 -11 -733 l0
-690 -44 -104 c-88 -206 -137 -388 -178 -653 -20 -128 -16 -529 6 -651 2 -11
7 -41 11 -69 5 -27 9 -52 10 -55 1 -3 7 -32 14 -65 21 -97 78 -284 113 -370
82 -204 230 -457 369 -630 75 -94 248 -270 334 -341 33 -27 62 -52 65 -55 3
-3 34 -26 69 -50 35 -24 81 -56 103 -71 21 -16 41 -28 44 -28 3 0 29 -15 59
-34 63 -41 232 -123 336 -164 195 -77 379 -124 619 -157 74 -11 439 -13 515
-4 97 12 146 19 175 24 14 3 41 7 60 10 223 36 635 196 792 306 14 11 29 19
32 19 8 0 172 116 226 159 24 20 56 45 69 56 58 46 252 246 316 325 135 167
291 430 364 613 55 138 117 343 127 418 2 14 8 46 13 70 10 44 14 70 30 204
11 90 6 472 -7 550 -6 33 -13 77 -16 98 -21 142 -105 421 -169 561 l-32 71 -5
720 c-5 717 -5 720 -27 760 -32 58 -69 94 -127 121 l-51 24 -2005 0 -2005 0
-50 -24z m455 -346 c3 -41 4 -117 2 -167 l-3 -93 -158 1 -158 2 0 161 c-1 88
1 164 3 168 2 3 73 5 157 5 l152 -2 5 -75z m385 -43 c1 -65 -2 -121 -5 -125
-3 -4 -32 -25 -65 -47 -50 -32 -70 -40 -122 -43 l-63 -4 0 169 0 170 127 -1
127 -1 1 -118z m383 84 c2 -35 0 -37 -61 -60 -34 -13 -90 -37 -124 -52 -34
-16 -64 -29 -66 -29 -3 0 -1 171 2 177 1 1 57 1 124 1 l124 -2 1 -35z m195 29
c-4 -4 -20 -10 -35 -14 -21 -5 -28 -3 -28 9 0 10 10 14 35 13 20 -1 32 -4 28
-8z m1337 -6 c0 -11 -7 -13 -27 -8 -63 15 -68 21 -20 22 35 1 47 -2 47 -14z
m370 10 c12 -3 16 -21 16 -89 0 -47 -2 -85 -3 -85 -2 0 -22 9 -46 20 -23 10
-78 34 -122 53 -78 33 -80 35 -81 70 l-2 36 112 0 c61 -1 118 -3 126 -5z m400
-164 l0 -170 -56 0 c-49 0 -65 6 -128 44 l-71 45 1 113 c1 62 2 118 3 124 1 7
43 11 126 12 l125 1 0 -169z m446 -2 l1 -168 -159 0 -158 0 -1 78 c-1 130 2
246 7 253 2 4 73 7 157 6 l152 -2 1 -167z m-3548 -297 c28 -1 32 -4 32 -27 0
-20 -24 -49 -102 -125 l-103 -99 -56 0 -56 0 0 123 c0 67 1 124 2 127 3 4 122
4 283 1z m3478 0 l72 -1 0 -125 0 -125 -57 0 -56 0 -102 100 c-76 73 -103 106
-103 124 0 28 15 32 115 29 33 -1 92 -2 131 -2z"/>
</g>
</svg>
